<?xml version="1.0" encoding="utf-8"?>
<!-- Generator: Adobe Illustrator 16.0.0, SVG Export Plug-In . SVG Version: 6.00 Build 0)  -->
<!DOCTYPE svg PUBLIC "-//W3C//DTD SVG 1.1//EN" "http://www.w3.org/Graphics/SVG/1.1/DTD/svg11.dtd">
<svg version="1.1" id="Calque_1" xmlns="http://www.w3.org/2000/svg" xmlns:xlink="http://www.w3.org/1999/xlink" x="0px" y="0px"
	 width="188px" height="52.888px" viewBox="0 0 188 52.888" enable-background="new 0 0 188 52.888" xml:space="preserve">
<g>
	<g>
		<path fill="#666666" d="M0.218,52.75l3.263-9.212h1.147l3.263,9.212H6.757l-0.909-2.628H2.186L1.277,52.75H0.218z M2.522,49.168
			h2.989l-1.47-4.304H4.017L2.522,49.168z"/>
		<path fill="#666666" d="M8.327,51.76l0.648-0.646c0.498,0.534,1.158,0.905,2.055,0.905c1.021,0,1.582-0.359,1.582-1.029
			c0-0.656-0.573-0.905-1.693-1.164c-1.396-0.335-2.354-0.708-2.354-1.972c0-0.993,0.872-1.787,2.304-1.787
			c1.159,0,1.906,0.373,2.517,0.943l-0.562,0.706c-0.498-0.459-1.17-0.78-1.905-0.78c-0.959,0-1.333,0.422-1.333,0.879
			c0,0.609,0.523,0.832,1.558,1.068c1.482,0.358,2.503,0.719,2.503,2.07c0,1.253-1.134,1.921-2.628,1.921
			C9.834,52.874,8.862,52.403,8.327,51.76z"/>
		<path fill="#666666" d="M14.581,51.76l0.648-0.646c0.498,0.534,1.158,0.905,2.055,0.905c1.021,0,1.582-0.359,1.582-1.029
			c0-0.656-0.573-0.905-1.694-1.164c-1.395-0.335-2.354-0.708-2.354-1.972c0-0.993,0.872-1.787,2.305-1.787
			c1.158,0,1.905,0.373,2.516,0.943l-0.561,0.706c-0.499-0.459-1.171-0.78-1.906-0.78c-0.958,0-1.332,0.422-1.332,0.879
			c0,0.609,0.522,0.832,1.556,1.068c1.483,0.358,2.504,0.719,2.504,2.07c0,1.253-1.134,1.921-2.629,1.921
			C16.088,52.874,15.116,52.403,14.581,51.76z"/>
		<path fill="#666666" d="M21.37,50.928v-4.724h1.071v4.5c0,0.868,0.375,1.278,1.208,1.278c0.797,0,1.446-0.41,2.13-1.055v-4.724
			h1.084v6.546h-1.084v-0.979c-0.572,0.559-1.395,1.103-2.466,1.103C22.054,52.874,21.37,52.167,21.37,50.928z"/>
		<path fill="#666666" d="M28.757,52.75v-6.546h1.071v1.214h0.024c0.486-0.755,1.259-1.352,2.542-1.352h0.137l-0.075,0.993
			c-0.037-0.013-0.273-0.013-0.311-0.013c-1.047,0-1.832,0.545-2.317,1.476v4.228H28.757z"/>
		<path fill="#666666" d="M33.104,51.201c0-1.327,1.135-2.27,4.398-2.728v-0.298c0-0.818-0.437-1.216-1.246-1.216
			c-0.996,0-1.731,0.435-2.379,0.992l-0.562-0.669c0.761-0.693,1.745-1.217,3.053-1.217c1.569,0,2.192,0.819,2.192,2.184v2.89
			c0,0.793,0.05,1.275,0.188,1.61h-1.097c-0.088-0.272-0.149-0.532-0.149-0.905c-0.734,0.683-1.557,1.005-2.542,1.005
			C33.827,52.85,33.104,52.255,33.104,51.201z M37.502,51.052v-1.835c-2.505,0.397-3.339,1.005-3.339,1.822
			c0,0.633,0.423,0.967,1.109,0.967C36.145,52.006,36.892,51.647,37.502,51.052z"/>
		<path fill="#666666" d="M40.393,52.75v-6.546h1.084v0.979c0.572-0.558,1.395-1.117,2.466-1.117c1.258,0,1.943,0.721,1.943,1.96
			v4.724h-1.071v-4.487c0-0.868-0.374-1.277-1.208-1.277c-0.785,0-1.445,0.409-2.13,1.054v4.711H40.393z"/>
		<path fill="#666666" d="M47.343,49.478c0-2.395,1.545-3.411,3.015-3.411c1.481,0,2.179,0.869,2.578,1.837l-0.909,0.37
			c-0.325-0.843-0.834-1.302-1.694-1.302c-0.945,0-1.905,0.658-1.905,2.506c0,1.612,0.772,2.518,1.88,2.518
			c0.835,0,1.346-0.359,1.771-1.314l0.883,0.347c-0.511,1.091-1.27,1.86-2.689,1.86C48.751,52.888,47.343,51.721,47.343,49.478z"/>
		<path fill="#666666" d="M53.908,49.478c0-2.38,1.593-3.411,2.977-3.411c1.557,0,2.739,1.093,2.739,3.46v0.223h-4.645
			c0.037,1.476,0.896,2.27,1.98,2.27c0.945,0,1.481-0.383,1.979-1.065l0.623,0.545c-0.61,0.868-1.445,1.39-2.678,1.39
			C55.328,52.888,53.908,51.76,53.908,49.478z M58.604,48.92c-0.088-1.166-0.647-1.96-1.731-1.96c-0.885,0-1.718,0.608-1.869,1.96
			H58.604z"/>
		<path fill="#666666" d="M63.698,49.478c0-2.38,1.596-3.411,2.977-3.411c1.559,0,2.741,1.093,2.741,3.46v0.223h-4.646
			c0.037,1.476,0.897,2.27,1.98,2.27c0.946,0,1.482-0.383,1.98-1.065l0.623,0.545c-0.611,0.868-1.444,1.39-2.68,1.39
			C65.119,52.888,63.698,51.76,63.698,49.478z M68.395,48.92c-0.086-1.166-0.646-1.96-1.73-1.96c-0.886,0-1.719,0.608-1.869,1.96
			H68.395z"/>
		<path fill="#666666" d="M71.424,51.163v-4.08h-1.148v-0.879h1.148v-2.33h1.069v2.33h1.706v0.879h-1.706v3.845
			c0,0.694,0.225,1.041,1.021,1.041c0.236,0,0.499-0.036,0.672-0.085v0.879c-0.186,0.037-0.596,0.075-0.933,0.075
			C71.871,52.838,71.424,52.304,71.424,51.163z"/>
		<path fill="#666666" d="M78.087,51.76l0.647-0.646c0.498,0.534,1.159,0.905,2.055,0.905c1.022,0,1.583-0.359,1.583-1.029
			c0-0.656-0.573-0.905-1.694-1.164c-1.396-0.335-2.354-0.708-2.354-1.972c0-0.993,0.872-1.787,2.306-1.787
			c1.157,0,1.904,0.373,2.515,0.943l-0.56,0.706c-0.499-0.459-1.172-0.78-1.906-0.78c-0.959,0-1.333,0.422-1.333,0.879
			c0,0.609,0.523,0.832,1.558,1.068c1.48,0.358,2.503,0.719,2.503,2.07c0,1.253-1.135,1.921-2.628,1.921
			C79.594,52.874,78.622,52.403,78.087,51.76z"/>
		<path fill="#666666" d="M84.452,49.478c0-2.38,1.595-3.411,2.977-3.411c1.56,0,2.742,1.093,2.742,3.46v0.223h-4.646
			c0.038,1.476,0.897,2.27,1.981,2.27c0.945,0,1.482-0.383,1.98-1.065l0.62,0.545c-0.608,0.868-1.444,1.39-2.678,1.39
			C85.872,52.888,84.452,51.76,84.452,49.478z M89.149,48.92c-0.088-1.166-0.649-1.96-1.732-1.96c-0.884,0-1.72,0.608-1.868,1.96
			H89.149z"/>
		<path fill="#666666" d="M91.703,52.75v-6.546h1.071v1.214h0.023c0.488-0.755,1.259-1.352,2.543-1.352h0.136l-0.073,0.993
			c-0.039-0.013-0.275-0.013-0.312-0.013c-1.047,0-1.832,0.545-2.317,1.476v4.228H91.703z"/>
		<path fill="#666666" d="M98.468,52.776l-2.415-6.572h1.145l1.844,5.306h0.023l1.818-5.306h1.071l-2.402,6.572H98.468z"/>
		<path fill="#666666" d="M103.214,44.803v-1.04h1.12v1.04H103.214z M103.238,52.75v-6.546h1.071v6.546H103.238z"/>
		<path fill="#666666" d="M105.905,49.478c0-2.395,1.543-3.411,3.015-3.411c1.481,0,2.179,0.869,2.577,1.837l-0.91,0.37
			c-0.322-0.843-0.833-1.302-1.693-1.302c-0.946,0-1.905,0.658-1.905,2.506c0,1.612,0.772,2.518,1.88,2.518
			c0.836,0,1.347-0.359,1.77-1.314l0.885,0.347c-0.511,1.091-1.271,1.86-2.691,1.86C107.312,52.888,105.905,51.721,105.905,49.478z"
			/>
		<path fill="#666666" d="M112.468,49.478c0-2.38,1.596-3.411,2.979-3.411c1.556,0,2.74,1.093,2.74,3.46v0.223h-4.647
			c0.039,1.476,0.897,2.27,1.981,2.27c0.948,0,1.481-0.383,1.98-1.065l0.623,0.545c-0.61,0.868-1.445,1.39-2.678,1.39
			C113.889,52.888,112.468,51.76,112.468,49.478z M117.165,48.92c-0.087-1.166-0.647-1.96-1.73-1.96
			c-0.886,0-1.721,0.608-1.869,1.96H117.165z"/>
		<path fill="#666666" d="M119.121,51.76l0.648-0.646c0.498,0.534,1.157,0.905,2.055,0.905c1.021,0,1.581-0.359,1.581-1.029
			c0-0.656-0.571-0.905-1.694-1.164c-1.394-0.335-2.353-0.708-2.353-1.972c0-0.993,0.871-1.787,2.304-1.787
			c1.16,0,1.907,0.373,2.518,0.943l-0.562,0.706c-0.498-0.459-1.171-0.78-1.907-0.78c-0.958,0-1.331,0.422-1.331,0.879
			c0,0.609,0.523,0.832,1.557,1.068c1.481,0.358,2.503,0.719,2.503,2.07c0,1.253-1.133,1.921-2.627,1.921
			C120.628,52.874,119.657,52.403,119.121,51.76z"/>
		<path fill="#666666" d="M129.397,52.75v-5.667h-1.146v-0.879h1.146v-0.881c0-1.104,0.61-1.773,1.895-1.773
			c0.198,0,0.484,0.039,0.598,0.039v0.866c-0.113-0.025-0.299-0.025-0.436-0.025c-0.599,0-0.985,0.273-0.985,0.919v0.855h1.371
			v0.879h-1.371v5.667H129.397z M133.111,44.84v-1.077h1.095v1.077H133.111z M133.123,52.75v-6.546h1.071v6.546H133.123z"/>
		<path fill="#666666" d="M136.249,52.75v-6.546h1.084v0.979c0.573-0.558,1.396-1.117,2.466-1.117c1.258,0,1.945,0.721,1.945,1.96
			v4.724h-1.072v-4.487c0-0.868-0.374-1.277-1.21-1.277c-0.782,0-1.443,0.409-2.129,1.054v4.711H136.249z"/>
		<path fill="#666666" d="M143.176,51.201c0-1.327,1.133-2.27,4.398-2.728v-0.298c0-0.818-0.437-1.216-1.245-1.216
			c-0.998,0-1.733,0.435-2.38,0.992l-0.561-0.669c0.759-0.693,1.744-1.217,3.052-1.217c1.568,0,2.191,0.819,2.191,2.184v2.89
			c0,0.793,0.05,1.275,0.187,1.61h-1.096c-0.086-0.272-0.148-0.532-0.148-0.905c-0.735,0.683-1.559,1.005-2.542,1.005
			C143.899,52.85,143.176,52.255,143.176,51.201z M147.574,51.052v-1.835c-2.504,0.397-3.338,1.005-3.338,1.822
			c0,0.633,0.422,0.967,1.106,0.967C146.216,52.006,146.963,51.647,147.574,51.052z"/>
		<path fill="#666666" d="M150.463,52.75v-6.546h1.084v0.979c0.572-0.558,1.395-1.117,2.468-1.117c1.257,0,1.941,0.721,1.941,1.96
			v4.724h-1.071v-4.487c0-0.868-0.374-1.277-1.207-1.277c-0.785,0-1.446,0.409-2.131,1.054v4.711H150.463z"/>
		<path fill="#666666" d="M157.415,49.478c0-2.395,1.543-3.411,3.014-3.411c1.482,0,2.181,0.869,2.578,1.837l-0.909,0.37
			c-0.323-0.843-0.836-1.302-1.694-1.302c-0.945,0-1.904,0.658-1.904,2.506c0,1.612,0.771,2.518,1.88,2.518
			c0.836,0,1.347-0.359,1.769-1.314l0.884,0.347c-0.509,1.091-1.27,1.86-2.689,1.86C158.823,52.888,157.415,51.721,157.415,49.478z"
			/>
		<path fill="#666666" d="M164.516,44.803v-1.04h1.121v1.04H164.516z M164.54,52.75v-6.546h1.071v6.546H164.54z"/>
		<path fill="#666666" d="M167.206,49.478c0-2.38,1.594-3.411,2.979-3.411c1.556,0,2.74,1.093,2.74,3.46v0.223h-4.647
			c0.038,1.476,0.897,2.27,1.979,2.27c0.949,0,1.483-0.383,1.983-1.065l0.622,0.545c-0.611,0.868-1.445,1.39-2.678,1.39
			C168.626,52.888,167.206,51.76,167.206,49.478z M171.903,48.92c-0.088-1.166-0.649-1.96-1.732-1.96
			c-0.884,0-1.72,0.608-1.868,1.96H171.903z"/>
		<path fill="#666666" d="M174.456,52.75v-6.546h1.072v1.214h0.023c0.487-0.755,1.259-1.352,2.542-1.352h0.137l-0.075,0.993
			c-0.037-0.013-0.273-0.013-0.311-0.013c-1.047,0-1.832,0.545-2.316,1.476v4.228H174.456z"/>
		<path fill="#666666" d="M178.778,51.76l0.647-0.646c0.498,0.534,1.158,0.905,2.055,0.905c1.022,0,1.583-0.359,1.583-1.029
			c0-0.656-0.573-0.905-1.695-1.164c-1.394-0.335-2.354-0.708-2.354-1.972c0-0.993,0.872-1.787,2.304-1.787
			c1.159,0,1.907,0.373,2.517,0.943l-0.56,0.706c-0.498-0.459-1.171-0.78-1.907-0.78c-0.959,0-1.332,0.422-1.332,0.879
			c0,0.609,0.523,0.832,1.557,1.068c1.482,0.358,2.504,0.719,2.504,2.07c0,1.253-1.134,1.921-2.627,1.921
			C180.285,52.874,179.314,52.403,178.778,51.76z"/>
	</g>
	<g>
		<path fill="#85BAE1" d="M165.362,11.531c0.07,0.096,0.139,0.195,0.205,0.295l0,0c-0.06-0.091-0.121-0.179-0.186-0.268
			C165.377,11.549,165.369,11.541,165.362,11.531c-0.396-0.536-0.76-1.101-0.76-1.819c0-1.785,1.454-3.231,3.245-3.231
			c1.795,0,3.247,1.446,3.247,3.231c0,0.718-0.363,1.283-0.761,1.819c-0.004,0.01-0.012,0.019-0.019,0.027l0,0
			c1.17-1.622,2.852-2.903,4.91-3.568c0.708-0.23,1.426-0.373,2.138-0.438C176.377,3.228,172.493,0,167.848,0
			c-4.64,0-8.526,3.228-9.515,7.552c0.717,0.065,1.432,0.208,2.142,0.438C162.517,8.65,164.193,9.921,165.362,11.531z"/>
		<path fill="#FF88A4" d="M187.519,14.224c-1.434-4.395-5.72-7.075-10.155-6.671c0.158,0.694,0.246,1.417,0.246,2.16
			c0,2.14-0.697,4.116-1.874,5.72c0.388-0.537,0.818-1.057,1.5-1.276c1.706-0.552,3.539,0.376,4.09,2.073
			c0.558,1.697-0.376,3.522-2.083,4.073c-0.683,0.22-1.337,0.05-1.975-0.155c-0.018-0.01-0.042-0.015-0.061-0.021
			c0,0-0.004,0-0.005-0.004c1.922,0.604,3.684,1.802,4.964,3.556c0.437,0.601,0.794,1.235,1.08,1.89
			C187.071,23.296,188.956,18.619,187.519,14.224z"/>
		<path fill="#FFB000" d="M175.231,26.467c0.631,0.202,1.247,0.444,1.663,1.021c1.058,1.443,0.737,3.462-0.718,4.512
			c-1.448,1.049-3.478,0.732-4.531-0.716c-0.424-0.579-0.464-1.249-0.46-1.913c0-0.021,0-0.04,0-0.062
			c0.018,2.009-0.587,4.037-1.862,5.786c-0.441,0.601-0.938,1.139-1.476,1.607c3.353,2.916,8.401,3.257,12.158,0.541
			c3.754-2.716,4.993-7.601,3.24-11.675c-0.616,0.364-1.284,0.666-1.993,0.896C179.217,27.123,177.122,27.08,175.231,26.467z"/>
		<path fill="#B9D300" d="M166.378,35.095c-1.266-1.732-1.87-3.737-1.862-5.725c0-0.049,0-0.095,0-0.145c0,0,0,0.001,0,0.003
			c0,0.021,0,0.048,0,0.072s0,0.044,0,0.069c0.003,0.664-0.036,1.334-0.461,1.913c-1.055,1.448-3.083,1.765-4.534,0.716
			c-1.45-1.05-1.772-3.068-0.717-4.512c0.396-0.545,0.968-0.794,1.565-0.987c-1.866,0.58-3.922,0.613-5.925-0.033
			c-0.706-0.232-1.378-0.534-1.99-0.898c-1.757,4.074-0.517,8.961,3.238,11.675c3.76,2.716,8.804,2.375,12.155-0.541
			C167.312,36.233,166.815,35.695,166.378,35.095z"/>
		<path fill="#FFD300" d="M158.43,20.146c0.048-0.02,0.096-0.035,0.152-0.051c-0.007,0.002-0.016,0.003-0.019,0.003
			c-0.024,0.013-0.048,0.02-0.073,0.028C158.47,20.132,158.45,20.137,158.43,20.146c-0.635,0.205-1.287,0.375-1.976,0.155
			c-1.703-0.551-2.636-2.376-2.083-4.073c0.555-1.697,2.389-2.625,4.092-2.073c0.683,0.22,1.114,0.739,1.503,1.282
			c0.004,0.006,0.01,0.015,0.014,0.021c-1.184-1.611-1.889-3.597-1.889-5.747c0-0.743,0.087-1.466,0.242-2.16
			c-4.433-0.403-8.721,2.276-10.153,6.671c-1.437,4.396,0.448,9.072,4.274,11.343c0.282-0.654,0.642-1.289,1.08-1.89
			C154.799,21.944,156.526,20.75,158.43,20.146z"/>
		<path fill="#7F659B" d="M175.733,15.438c1.179-1.607,1.876-3.582,1.876-5.726c0-0.743-0.088-1.466-0.246-2.16
			c-0.712,0.065-1.43,0.208-2.138,0.438c-2.562,0.828-4.547,2.613-5.678,4.827c-0.817,1.595-0.182,3.547,1.424,4.362
			c1.305,0.659,2.843,0.364,3.815-0.636C175.131,16.197,175.446,15.828,175.733,15.438z"/>
		<path fill="#EB6C0B" d="M175.208,26.46c1.899,0.62,4.002,0.664,6.045,0.005c0.709-0.23,1.379-0.532,1.993-0.896
			c-0.286-0.656-0.644-1.291-1.08-1.892c-1.582-2.171-3.901-3.493-6.37-3.884c-1.777-0.278-3.441,0.925-3.723,2.692
			c-0.23,1.44,0.533,2.811,1.785,3.419C174.294,26.124,174.748,26.308,175.208,26.46z"/>
		<path fill="#B77E0D" d="M164.516,29.37c-0.008,1.987,0.597,3.992,1.862,5.725c0.438,0.601,0.934,1.139,1.47,1.607
			c0.537-0.469,1.034-1.007,1.476-1.607c1.583-2.172,2.134-4.772,1.74-7.229c-0.279-1.767-1.947-2.972-3.725-2.694
			c-1.444,0.228-2.52,1.374-2.714,2.748C164.55,28.396,164.516,28.883,164.516,29.37z"/>
		<path fill="#88911A" d="M158.43,20.146c-1.903,0.604-3.631,1.798-4.896,3.53c-0.438,0.601-0.798,1.235-1.08,1.89
			c0.612,0.366,1.284,0.668,1.99,0.9c2.56,0.826,5.222,0.545,7.445-0.584c1.603-0.814,2.236-2.767,1.424-4.359
			c-0.662-1.297-2.092-1.962-3.463-1.721C159.366,19.879,158.89,19.994,158.43,20.146z"/>
		<path fill="#31A5A8" d="M165.362,11.531c-1.169-1.609-2.846-2.881-4.888-3.541c-0.71-0.23-1.425-0.373-2.142-0.438
			c-0.155,0.694-0.242,1.417-0.242,2.16c0,2.685,1.095,5.112,2.856,6.868c1.275,1.265,3.335,1.265,4.606,0
			c1.034-1.028,1.224-2.586,0.573-3.81C165.904,12.339,165.649,11.926,165.362,11.531z"/>
	</g>
	<g>
		<path fill="#666666" d="M5.908,9.402c0,0,0.01,4.655,0.01,4.631v13.126c0,1.214,0.01,2.415,0.031,3.596h7.643l2.115-4.35
			l0.594-0.093l-0.357,5.731l-0.096,0.113c-2.782,0-5.24,0-7.6,0H4.211H0.068L0,31.598l2.044-0.61
			c0.272-0.074,0.425-0.24,0.445-0.508c0.01-0.453,0.019-0.955,0.024-1.514c0.005-0.553,0.007-1.172,0.007-1.843v-13.09
			c0-0.588-0.001-1.115-0.007-1.589c-0.005-0.472-0.014-0.896-0.024-1.278c-0.012-0.3-0.142-0.467-0.397-0.559l-1.987-0.592
			L0.02,9.402H5.908z"/>
		<path fill="#666666" d="M94.079,10.914c0,0.579-0.191,1.053-0.576,1.419c-0.382,0.369-0.873,0.551-1.476,0.551
			c-0.581,0-1.052-0.169-1.42-0.508c-0.366-0.34-0.547-0.788-0.547-1.346c0-0.593,0.188-1.057,0.572-1.404
			c0.38-0.345,0.887-0.519,1.517-0.519c0.566,0,1.03,0.159,1.392,0.469C93.902,9.885,94.079,10.335,94.079,10.914z M93.891,21.351
			c0-1.709,0.031-3.271,0.103-4.696l-0.152-0.115c-1.666,0.407-3.54,0.804-5.487,1.168l0.052,0.414l2.198,0.629
			c0.043,1.247,0.068,2.61,0.068,4.083v5.484c0,1.049-0.008,3.84-0.008,3.84h5.613l-0.03-0.537l-1.91-0.557
			c-0.251-0.088-0.393-0.272-0.415-0.575c-0.02-0.52-0.031-1.457-0.031-2.81V21.351z"/>
		<path fill="#666666" d="M124.617,19.751c0-4.12-0.019-7.423-0.062-9.916l-2.229-0.655l-0.072-0.433
			c1.971-0.373,3.87-0.774,5.536-1.182l0.148,0.134c-0.065,1.785-0.096,4.275-0.096,7.448v10.526c0,1.993,0.008,3.598,0.03,4.813
			c0.035,0.322,0.188,0.512,0.46,0.592l1.769,0.533l0.071,0.544h-5.557c0,0,0.001-4.273,0.001-5.828V19.751z"/>
		<path fill="#666666" d="M32.796,31.253c-0.51-0.012-0.919-0.055-1.22-0.13c-0.304-0.072-0.53-0.208-0.685-0.395
			c-0.148-0.189-0.245-0.463-0.278-0.819c-0.036-0.354-0.049-0.827-0.041-1.412l0.085-6.83c0.013-1.65-0.469-2.917-1.439-3.793
			c-0.97-0.872-2.289-1.312-3.961-1.312c-1.607,0-3.414,0.449-5.505,1.38l0.21,0.902c1.495-0.289,2.787-0.445,3.781-0.445
			c1.247,0,2.171,0.308,2.774,0.914c0.601,0.605,0.896,1.539,0.89,2.798l-0.022,0.649c-3.137,0-5.442,0.427-6.911,1.279
			c-1.469,0.854-2.204,2.182-2.204,3.981c0,1.465,0.47,2.593,1.398,3.396c0.932,0.802,2.164,1.2,3.698,1.2
			c1.315,0,2.717-0.55,4.205-1.656c0.396,1.092,1.131,1.641,2.199,1.641c0.239,0,0.697-0.092,1.376-0.278
			c0.679-0.185,1.248-0.371,1.717-0.559L32.796,31.253z M27.353,30.132c-0.754,0.469-1.632,0.63-2.639,0.63
			c-0.89,0-1.598-0.245-2.115-0.739c-0.516-0.495-0.774-1.335-0.774-2.521c0-1.257,0.392-2.152,1.173-2.682
			c0.779-0.53,2.248-0.795,4.386-0.795L27.353,30.132z"/>
		<path fill="#666666" d="M70.728,31.253c-0.509-0.012-0.916-0.055-1.219-0.13c-0.304-0.072-0.528-0.208-0.68-0.395
			c-0.151-0.189-0.244-0.463-0.283-0.819c-0.035-0.354-0.048-0.827-0.039-1.412l0.085-6.83c0.01-1.65-0.47-2.917-1.442-3.793
			c-0.97-0.872-2.289-1.312-3.959-1.312c-1.609,0-3.413,0.449-5.505,1.38l0.212,0.902c1.495-0.289,2.787-0.445,3.779-0.445
			c1.246,0,2.17,0.308,2.771,0.914c0.604,0.605,0.899,1.539,0.887,2.798l-0.017,0.649c-3.137,0-5.439,0.427-6.908,1.279
			c-1.468,0.854-2.204,2.182-2.204,3.981c0,1.465,0.467,2.593,1.396,3.396c0.932,0.802,2.166,1.2,3.698,1.2
			c1.315,0,2.716-0.55,4.204-1.656c0.396,1.092,1.127,1.641,2.196,1.641c0.242,0,0.7-0.092,1.377-0.278
			c0.682-0.185,1.25-0.371,1.72-0.559L70.728,31.253z M65.285,30.132c-0.75,0.469-1.633,0.63-2.638,0.63
			c-0.89,0-1.595-0.245-2.112-0.739c-0.52-0.495-0.78-1.335-0.78-2.521c0-1.257,0.394-2.152,1.173-2.682
			c0.787-0.53,2.247-0.795,4.39-0.795L65.285,30.132z"/>
		<path fill="#666666" d="M122.639,31.253c-0.516-0.012-0.921-0.055-1.222-0.13c-0.304-0.072-0.531-0.208-0.685-0.395
			c-0.148-0.189-0.242-0.463-0.278-0.819c-0.037-0.354-0.052-0.827-0.041-1.412l0.086-6.83c0.01-1.65-0.469-2.917-1.44-3.793
			c-0.968-0.872-2.29-1.312-3.964-1.312c-1.607,0-3.411,0.449-5.503,1.38l0.214,0.902c1.493-0.289,2.787-0.445,3.776-0.445
			c1.246,0,2.173,0.308,2.773,0.914c0.602,0.605,0.9,1.539,0.886,2.798l-0.015,0.649c-3.138,0-5.445,0.427-6.91,1.279
			c-1.469,0.854-2.203,2.182-2.203,3.981c0,1.465,0.464,2.593,1.396,3.396c0.933,0.802,2.163,1.2,3.691,1.2
			c1.321,0,2.725-0.55,4.21-1.656c0.396,1.092,1.128,1.641,2.195,1.641c0.243,0,0.703-0.092,1.378-0.278
			c0.681-0.185,1.252-0.371,1.721-0.559L122.639,31.253z M117.19,30.132c-0.75,0.469-1.63,0.63-2.634,0.63
			c-0.893,0-1.597-0.245-2.114-0.739c-0.521-0.495-0.781-1.335-0.781-2.521c0-1.257,0.395-2.152,1.178-2.682
			c0.783-0.53,2.246-0.795,4.388-0.795L117.19,30.132z"/>
		<path fill="#666666" d="M78.771,32.617c2.802,0,4.972-0.779,6.498-2.334c1.522-1.562,2.288-3.685,2.288-6.365
			c0-2.18-0.594-3.947-1.783-5.312c-1.187-1.364-2.791-2.043-4.814-2.043c-1.509,0-3.07,0.571-4.687,1.722v-1.607l-0.171-0.113
			l-5.388,1.147l0.059,0.448l2.212,0.627c0.046,1.296,0.067,4.395,0.067,9.303v6.6c0,1.682,0.003,5.374,0.003,5.374h5.898
			l-0.074-0.553l-2.126-0.595c-0.278-0.068-0.427-0.245-0.448-0.591c-0.021-0.465-0.032-1.272-0.032-2.434v-3.517
			C77.134,32.536,77.968,32.617,78.771,32.617z M76.272,19.271c0.858-0.547,1.84-0.822,2.945-0.822c1.543,0,2.729,0.519,3.554,1.555
			c0.825,1.032,1.237,2.569,1.237,4.603c0,2.146-0.432,3.797-1.304,4.944c-0.864,1.154-2.151,1.728-3.866,1.728
			c-0.824,0-1.679-0.125-2.566-0.382V19.271z"/>
		<path fill="#666666" d="M107.553,30.534l0.077,0.592c-1.891,0.951-3.579,1.426-5.065,1.426c-1.207,0-2.109-0.32-2.7-0.96
			c-0.589-0.64-0.889-1.605-0.889-2.896c0-2.178,0.042-5.614,0.119-10.316l-2.284-0.65l-0.069-0.543h2.528l1.188-3.974
			c0.644-0.163,1.328-0.323,1.855-0.477l0.159,0.115c-0.037,1.328-0.051,2.564-0.051,3.713v0.605h4.76v1.484h-4.76
			c-0.068,3.729-0.102,6.739-0.102,9.026c0,1.183,0.164,1.983,0.493,2.428c0.327,0.444,0.95,0.668,1.869,0.668
			C105.414,30.774,106.376,30.695,107.553,30.534z"/>
		<path fill="#666666" d="M144.282,22.797c0-1.948-0.537-3.473-1.611-4.578c-1.074-1.103-2.572-1.656-4.501-1.656
			c-2.293,0-4.123,0.771-5.495,2.316c-1.371,1.541-2.057,3.527-2.057,5.955c0,2.444,0.734,4.353,2.204,5.727
			c1.467,1.373,3.393,2.057,5.773,2.057c0.827,0,1.725-0.124,2.688-0.376c0.965-0.253,1.905-0.67,2.816-1.248l-0.075-0.562
			c-1.167,0.169-2.267,0.253-3.29,0.253c-2.258,0-3.922-0.538-4.977-1.616c-1.062-1.078-1.592-2.871-1.592-5.374h10.063
			C144.263,23.389,144.282,23.092,144.282,22.797z M140.727,22.396h-6.575c0.081-1.282,0.441-2.373,1.08-3.275
			c0.643-0.909,1.561-1.358,2.768-1.358c0.906,0,1.588,0.321,2.043,0.961c0.457,0.643,0.685,1.709,0.685,3.199V22.396z"/>
		<path fill="#666666" d="M54.868,30.008c-1.773,0.566-3.519,0.869-5.127,0.869c-2.985,0-5.325-0.951-7.015-2.86
			c-1.688-1.907-2.53-4.456-2.53-7.658c0-2.986,0.734-5.413,2.205-7.282c1.476-1.869,3.499-2.805,6.081-2.805
			c1.084,0,2.291,0.191,3.621,0.577l1.204,4.306l0.526-0.074l1.019-5.315l-0.111-0.132c-1.883-0.447-3.728-0.672-5.529-0.672
			c-3.8,0-6.887,1.085-9.256,3.262c-2.371,2.172-3.559,5.12-3.559,8.851c0,3.501,1.084,6.322,3.235,8.466
			c2.157,2.14,4.979,3.21,8.472,3.21c2.536,0,4.817-0.68,6.854-2.026L54.868,30.008z"/>
	</g>
</g>
</svg>
